# This file uses centimeters as units for non-parametric coordinates.

mtllib haidai1.mtl
g default
v -80.952591 36.515747 1.748812
v -85.615784 40.799984 4.012404
v -74.549278 22.310169 -0.608176
v -86.991280 22.560421 4.012403
v -81.245789 27.174067 1.733111
v -88.847252 27.264748 4.012404
v -87.924492 0.166674 4.012411
v -81.582756 0.166676 1.689933
v -77.651871 10.947221 0.540878
v -87.042450 11.571721 4.012407
v -75.961609 16.612946 -0.033649
v -85.979500 16.956848 4.012405
v -79.686302 5.388674 1.115406
v -88.367577 5.675725 4.012409
v -81.076485 31.977432 1.740962
v -87.772438 34.287010 4.012404
v -81.043892 34.237938 1.744887
v -86.599960 37.536919 4.012404
v -81.235191 29.597698 1.737036
v -88.734962 30.748644 4.012404
v -77.719391 24.723816 0.562467
v -88.113991 24.943169 4.012403
v -75.262077 19.506523 -0.320912
v -86.009766 19.724073 4.012403
v -76.760437 13.755621 0.253615
v -86.427185 14.265173 4.012406
v -78.624680 8.155271 0.828142
v -87.872093 8.694795 4.012408
v -80.748657 2.757437 1.402669
v -88.339592 2.800118 4.012410
v -80.952599 36.515747 6.292566
v -85.615791 40.799988 4.028974
v -74.549278 22.310169 8.649549
v -86.991280 22.560421 4.028970
v -81.245789 27.174067 6.308259
v -88.847252 27.264748 4.028972
v -87.924500 0.166674 4.028980
v -81.582756 0.166676 6.351451
v -77.651878 10.947222 7.500500
v -87.042458 11.571723 4.028975
v -75.961609 16.612946 8.075025
v -85.979500 16.956848 4.028973
v -79.686302 5.388674 6.925976
v -88.367584 5.675725 4.028977
v -81.076485 31.977432 6.300412
v -87.772438 34.287010 4.028972
v -81.043892 34.237938 6.296489
v -86.599968 37.536919 4.028973
v -81.235191 29.597698 6.304336
v -88.734962 30.748644 4.028972
v -77.719391 24.723816 7.478904
v -88.113991 24.943169 4.028971
v -75.262085 19.506523 8.362288
v -86.009766 19.724073 4.028971
v -76.760437 13.755621 7.787763
v -86.427193 14.265175 4.028974
v -78.624680 8.155271 7.213238
v -87.872101 8.694796 4.028976
v -80.748665 2.757438 6.638713
v -88.339600 2.800118 4.028978
vt 0.299496 0.899780
vt 0.107925 1.000000
vt 0.500000 0.544599
vt 0.107925 0.550000
vt 0.301196 0.664476
vt 0.107925 0.665534
vt 0.107925 0.014664
vt 0.304369 0.014420
vt 0.402185 0.279510
vt 0.107925 0.282332
vt 0.451092 0.412054
vt 0.107925 0.416166
vt 0.353277 0.146965
vt 0.107925 0.148498
vt 0.300346 0.782128
vt 0.107925 0.832767
vt 0.299921 0.840954
vt 0.107925 0.916384
vt 0.300771 0.723302
vt 0.107925 0.749151
vt 0.400598 0.604538
vt 0.107925 0.607767
vt 0.475546 0.478327
vt 0.107925 0.483083
vt 0.426638 0.345782
vt 0.107925 0.349249
vt 0.377731 0.213237
vt 0.107925 0.215415
vt 0.328823 0.080693
vt 0.107925 0.081581
vt 0.107925 0.014664
vt 0.304369 0.014420
vt 0.328823 0.080693
vt 0.107925 0.081581
vt 0.500000 0.544599
vt 0.400598 0.604538
vt 0.107925 0.607767
vt 0.107925 0.550000
vt 0.301196 0.664476
vt 0.300771 0.723302
vt 0.107925 0.749151
vt 0.107925 0.665534
vt 0.107925 0.282332
vt 0.402185 0.279510
vt 0.426638 0.345782
vt 0.107925 0.349249
vt 0.107925 0.416166
vt 0.451092 0.412054
vt 0.475546 0.478327
vt 0.107925 0.483083
vt 0.107925 0.148498
vt 0.353277 0.146965
vt 0.377731 0.213237
vt 0.107925 0.215415
vt 0.300346 0.782128
vt 0.299921 0.840954
vt 0.107925 0.916384
vt 0.107925 0.832767
vt 0.299496 0.899780
vt 0.107925 1.000000
vn 0.333674 0.025056 0.942356
vn 0.333674 0.025056 0.942355
vn 0.324944 0.001460 0.945732
vn 0.326016 0.004325 0.945355
vn 0.353336 0.065823 0.933178
vn 0.329319 0.064551 0.942010
vn 0.316901 0.051409 0.947064
vn 0.345340 0.067196 0.936069
vn 0.297775 0.020343 0.954419
vn 0.290140 -0.029418 0.956532
vn 0.290281 -0.031204 0.956432
vn 0.295103 0.012703 0.955381
vn 0.341133 -0.053374 0.938499
vn 0.343879 -0.051884 0.937579
vn 0.360883 -0.039727 0.931765
vn 0.359004 -0.041358 0.932419
vn 0.370777 -0.015567 0.928591
vn 0.371413 -0.012270 0.928387
vn 0.366217 0.039948 0.929671
vn 0.366562 0.038409 0.929601
vn 0.319860 -0.025555 0.947120
vn 0.319735 -0.029074 0.947061
vn 0.327367 -0.050519 0.943546
vn 0.325399 -0.047663 0.944375
vn 0.301848 -0.061299 0.951383
vn 0.331705 -0.070355 0.940756
vn 0.340617 -0.070425 0.937561
vn 0.304346 -0.062670 0.950498
vn 0.360103 -0.070554 0.930241
vn 0.360103 -0.070554 0.930241
vn -0.333673 -0.025055 0.942356
vn -0.333673 -0.025055 0.942356
vn -0.324944 -0.001460 0.945732
vn -0.326015 -0.004325 0.945355
vn -0.353336 -0.065823 0.933178
vn -0.329319 -0.064549 0.942010
vn -0.316901 -0.051407 0.947065
vn -0.345340 -0.067195 0.936069
vn -0.297774 -0.020343 0.954420
vn -0.290140 0.029417 0.956532
vn -0.290281 0.031203 0.956433
vn -0.295102 -0.012704 0.955381
vn -0.341133 0.053375 0.938499
vn -0.343879 0.051885 0.937580
vn -0.360883 0.039728 0.931765
vn -0.359004 0.041359 0.932419
vn -0.370777 0.015568 0.928591
vn -0.371413 0.012271 0.928387
vn -0.366218 -0.039947 0.929671
vn -0.366562 -0.038409 0.929601
vn -0.319859 0.025556 0.947121
vn -0.319734 0.029075 0.947061
vn -0.327367 0.050520 0.943546
vn -0.325398 0.047664 0.944375
vn -0.301848 0.061298 0.951383
vn -0.331705 0.070356 0.940756
vn -0.340618 0.070425 0.937561
vn -0.304346 0.062670 0.950498
vn -0.360104 0.070554 0.930240
vn -0.360104 0.070554 0.930240
s 1
g pPlane106
usemtl blinn2SG
f 7/7/1 8/8/2 29/29/3 30/30/4
f 3/3/5 21/21/6 22/22/7 4/4/8
f 5/5/9 19/19/10 20/20/11 6/6/12
f 10/10/13 9/9/14 25/25/15 26/26/16
f 12/12/17 11/11/18 23/23/19 24/24/20
f 14/14/21 13/13/22 27/27/23 28/28/24
f 15/15/25 17/17/26 18/18/27 16/16/28
f 17/17/26 1/1/29 2/2/30 18/18/27
f 19/19/10 15/15/25 16/16/28 20/20/11
f 21/21/6 5/5/9 6/6/12 22/22/7
f 24/24/20 23/23/19 3/3/5 4/4/8
f 26/26/16 25/25/15 11/11/18 12/12/17
f 28/28/24 27/27/23 9/9/14 10/10/13
f 30/30/4 29/29/3 13/13/22 14/14/21
s 6
f 37/31/31 38/32/32 59/33/33 60/34/34
f 33/35/35 51/36/36 52/37/37 34/38/38
f 35/39/39 49/40/40 50/41/41 36/42/42
f 40/43/43 39/44/44 55/45/45 56/46/46
f 42/47/47 41/48/48 53/49/49 54/50/50
f 44/51/51 43/52/52 57/53/53 58/54/54
f 45/55/55 47/56/56 48/57/57 46/58/58
f 47/56/56 31/59/59 32/60/60 48/57/57
f 49/40/40 45/55/55 46/58/58 50/41/41
f 51/36/36 35/39/39 36/42/42 52/37/37
f 54/50/50 53/49/49 33/35/35 34/38/38
f 56/46/46 55/45/45 41/48/48 42/47/47
f 58/54/54 57/53/53 39/44/44 40/43/43
f 60/34/34 59/33/33 43/52/52 44/51/51
