# This file uses centimeters as units for non-parametric coordinates.

mtllib SM_caodi.mtl
g default
v 10.283417 3.086524 0.000000
v 10.283417 11.730589 0.000000
v 13.165478 3.086524 0.000000
v 13.165478 11.730589 0.000000
v 11.724447 3.086524 1.441031
v 11.724447 11.730589 1.441031
v 11.724447 3.086524 -1.441031
v 11.724447 11.730589 -1.441031
vt 0.870073 0.611408
vt 0.869927 0.917034
vt 0.971143 0.611363
vt 0.970821 0.917050
vt 0.870073 0.611408
vt 0.971143 0.611363
vt 0.970821 0.917050
vt 0.869927 0.917034
vn 0.000000 0.000000 1.000000
vn 0.000000 0.000000 1.000000
vn 0.000000 0.000000 1.000000
vn 0.000000 0.000000 1.000000
vn 1.000000 0.000000 0.000000
vn 1.000000 0.000000 0.000000
vn 1.000000 0.000000 0.000000
vn 1.000000 0.000000 0.000000
s off
g pPlane37
usemtl blinn5SG
f 1/1/1 3/3/2 4/4/3 2/2/4
f 5/5/5 7/6/6 8/7/7 6/8/8
