# This file uses centimeters as units for non-parametric coordinates.

mtllib haidai2.mtl
g default
v 152.694672 26.746265 13.155180
v 156.748611 29.758427 9.027388
v 156.748611 26.746267 9.027388
v 148.473434 16.041023 17.453283
v 156.748627 16.203705 9.027372
v 152.666550 19.653139 13.183798
v 156.748642 19.683788 9.027380
v 156.748611 0.010537 9.027388
v 152.606567 -0.020818 13.244879
v 177.691345 30.899817 -6.505195
v 176.675797 34.315437 -0.023717
v 176.675797 30.899818 -0.023719
v 178.748795 18.760675 -13.254094
v 176.675797 18.945147 -0.023715
v 177.698380 22.856611 -6.550143
v 176.675797 22.891365 -0.023714
v 176.675797 0.583007 -0.023715
v 177.713409 0.547453 -6.646046
v 171.139786 26.746265 17.930952
v 175.193726 29.758427 13.803152
v 175.193741 26.746267 13.803160
v 166.918533 16.041023 22.229055
v 175.193726 16.203705 13.803152
v 171.111649 19.653139 17.959570
v 175.193741 19.683788 13.803160
v 175.193741 0.010537 13.803160
v 171.051682 -0.020818 18.020643
v 162.527390 28.342230 -2.858571
v 158.231522 31.534126 1.515534
v 158.231522 28.342232 1.515532
v 167.000504 16.998199 -7.413149
v 158.231522 17.170589 1.515533
v 162.557175 20.825853 -2.888906
v 158.231522 20.858332 1.515535
v 158.231522 0.011166 1.515539
v 162.620743 -0.022060 -2.953624
v 159.551010 30.899817 15.995350
v 166.111572 34.315437 15.995348
v 166.111572 30.899818 15.995348
v 152.719772 18.760675 15.995346
v 166.111572 18.945147 15.995345
v 159.505508 22.856611 15.995345
v 166.111572 22.891365 15.995349
v 166.111572 0.583007 15.995356
v 159.408432 0.547453 15.995352
v 160.605545 26.746265 5.100218
v 156.551575 29.758427 9.228018
v 156.551575 26.746267 9.228018
v 164.826736 16.041023 0.802114
v 156.551559 16.203705 9.228010
v 160.633652 19.653139 5.071592
v 156.551575 19.683788 9.228018
v 156.551575 0.010537 9.228018
v 160.693619 -0.020818 5.010534
v 157.421753 30.899817 7.992247
v 158.437302 34.315437 1.510769
v 158.437286 30.899818 1.510771
v 156.364288 18.760675 14.741144
v 158.437286 18.945147 1.510766
v 157.414688 22.856611 8.037193
v 158.437302 22.891365 1.510766
v 158.437302 0.583007 1.510769
v 157.399673 0.547453 8.133100
v 177.461136 30.899817 8.644212
v 178.476685 34.315437 2.162733
v 178.476685 30.899818 2.162735
v 176.403687 18.760675 15.393108
v 178.476685 18.945147 2.162730
v 177.454086 22.856611 8.689157
v 178.476685 22.891365 2.162730
v 178.476700 0.583007 2.162733
v 177.439072 0.547453 8.785064
v 178.671707 26.746265 18.449118
v 175.221191 29.758427 13.805044
v 175.221207 26.746267 13.805052
v 182.264572 16.041023 23.284781
v 175.221191 16.203705 13.805044
v 178.695633 19.653139 18.481314
v 175.221191 19.683788 13.805044
v 175.221207 0.010537 13.805037
v 178.746674 -0.020818 18.550039
v 160.226593 26.746265 13.673338
v 156.776077 29.758427 9.029272
v 156.776093 26.746267 9.029280
v 163.819458 16.041023 18.509001
v 156.776077 16.203705 9.029272
v 160.250519 19.653139 13.705542
v 156.776093 19.683788 9.029280
v 156.776093 0.010537 9.029264
v 160.301590 -0.020818 13.774244
v 176.915253 30.899817 16.647314
v 170.354691 34.315437 16.647312
v 170.354706 30.899818 16.647312
v 183.746490 18.760675 16.647310
v 170.354691 18.945147 16.647310
v 176.960754 22.856611 16.647310
v 170.354691 22.891365 16.647312
v 170.354691 0.583007 16.647320
v 177.057816 0.547453 16.647316
v 166.202805 30.899817 -4.412776
v 159.642242 34.315437 -4.412773
v 159.642242 30.899818 -4.412777
v 173.034027 18.760675 -4.412776
v 159.642227 18.945147 -4.412777
v 166.248291 22.856611 -4.412779
v 159.642227 22.891365 -4.412776
v 159.642242 0.583007 -4.412766
v 166.345352 0.547453 -4.412772
v 165.379196 26.746265 1.930029
v 169.433151 29.758427 -2.197779
v 169.433151 26.746267 -2.197771
v 161.157959 16.041023 6.228125
v 169.433151 16.203705 -2.197779
v 165.351059 19.653139 1.958647
v 169.433151 19.683788 -2.197771
v 169.433151 0.010537 -2.197771
v 165.291077 -0.020818 2.019728
v 183.256653 30.899817 0.000005
v 176.696091 34.315437 0.000004
v 176.696091 30.899818 0.000003
v 190.087891 18.760675 0.000002
v 176.696091 18.945147 0.000001
v 183.302139 22.856611 0.000000
v 176.696091 22.891365 0.000003
v 176.696091 0.583007 0.000011
v 183.399216 0.547453 0.000008
v 173.290054 26.746265 -6.124933
v 169.236099 29.758427 -1.997141
v 169.236099 26.746267 -1.997133
v 177.511276 16.041023 -10.423044
v 169.236099 16.203705 -1.997141
v 173.318161 19.653139 -6.153559
v 169.236099 19.683788 -1.997133
v 169.236099 0.010537 -1.997133
v 173.378159 -0.020818 -6.214640
v 168.236908 30.899817 21.013510
v 169.252457 34.315437 14.532031
v 169.252457 30.899818 14.532034
v 167.179459 18.760675 27.762407
v 169.252457 18.945147 14.532029
v 168.229858 22.856611 21.058456
v 169.252457 22.891365 14.532028
v 169.252472 0.583007 14.532031
v 168.214828 0.547453 21.154362
v 160.637497 30.899817 -10.917974
v 159.621948 34.315437 -4.436497
v 159.621948 30.899818 -4.436499
v 161.694946 18.760675 -17.666874
v 159.621933 18.945147 -4.436495
v 160.644531 22.856611 -10.962923
v 159.621933 22.891365 -4.436494
v 159.621948 0.583007 -4.436494
v 160.659561 0.547453 -11.058826
v 179.050644 26.746265 9.875998
v 174.996689 29.758427 14.003782
v 174.996689 26.746267 14.003790
v 183.271851 16.041023 5.577887
v 174.996658 16.203705 14.003790
v 179.078751 19.653139 9.847364
v 174.996689 19.683788 14.003798
v 174.996689 0.010537 14.003790
v 179.138718 -0.020818 9.786291
v 165.643372 26.746265 -8.359049
v 169.093857 29.758427 -3.714983
v 169.093857 26.746267 -3.714983
v 162.050491 16.041023 -13.194735
v 169.093857 16.203705 -3.714991
v 165.619431 19.653139 -8.391253
v 169.093857 19.683788 -3.714983
v 169.093872 0.010537 -3.714998
v 165.568375 -0.020818 -8.459986
v 175.801819 36.796524 2.539494
v 169.183502 40.872585 2.539493
v 169.183502 36.796524 2.539493
v 182.693161 22.310169 2.539491
v 169.183502 22.530310 2.539491
v 175.847687 27.198092 2.539490
v 169.183502 27.239563 2.539493
v 169.183502 0.617685 2.539501
v 175.945618 0.575256 2.539497
v 172.911118 26.746265 2.448179
v 169.460617 29.758427 -2.195894
v 169.460617 26.746267 -2.195879
v 176.503983 16.041023 7.283850
v 169.460617 16.203705 -2.195887
v 172.935043 19.653139 2.480391
v 169.460617 19.683788 -2.195894
v 169.460617 0.010537 -2.195894
v 172.986099 -0.020818 2.549101
v 153.400574 30.899817 -4.412775
v 159.961121 34.315437 -4.412776
v 159.961121 30.899818 -4.412776
v 146.569336 18.760675 -4.412777
v 159.961136 18.945147 -4.412778
v 153.355072 22.856611 -4.412779
v 159.961136 22.891365 -4.412776
v 159.961121 0.583007 -4.412768
v 153.257996 0.547453 -4.412772
v 170.187515 36.796524 -4.022963
v 169.163025 40.872585 2.515564
v 169.163025 36.796524 2.515562
v 171.254288 22.310169 -10.831263
v 169.163025 22.530310 2.515565
v 170.194611 27.198092 -4.068305
v 169.163025 27.239563 2.515567
v 169.163025 0.617685 2.515566
v 170.209778 0.575256 -4.165053
v 153.073608 26.746265 4.582067
v 156.524124 29.758427 9.226126
v 156.524094 26.746267 9.226133
v 149.480728 16.041023 -0.253603
v 156.524094 16.203705 9.226133
v 153.049667 19.653139 4.549864
v 156.524109 19.683788 9.226149
v 156.524124 0.010537 9.226126
v 152.998627 -0.020818 4.481146
v 169.908539 30.899817 8.003109
v 168.892975 34.315437 14.484587
v 168.892975 30.899818 14.484585
v 170.965988 18.760675 1.254210
v 168.892975 18.945147 14.484589
v 169.915573 22.856611 7.958161
v 168.892975 22.891365 14.484590
v 168.892990 0.583007 14.484589
v 169.930603 0.547453 7.862257
v 162.680801 36.796524 3.445165
v 169.299103 40.872585 3.445165
v 169.299103 36.796524 3.445164
v 155.789444 22.310169 3.445163
v 169.299103 22.530310 3.445162
v 162.634918 27.198092 3.445161
v 169.299103 27.239563 3.445164
v 169.299103 0.617685 3.445172
v 162.536972 0.575256 3.445168
v 168.519852 36.796524 9.101952
v 169.544327 40.872585 2.563426
v 169.544327 36.796524 2.563428
v 167.453079 22.310169 15.910252
v 169.544327 22.530310 2.563424
v 168.512726 27.198092 9.147295
v 169.544327 27.239563 2.563423
v 169.544327 0.617685 2.563426
v 168.497574 0.575256 9.244044
v 170.454422 30.899817 0.000005
v 177.014984 34.315437 0.000004
v 177.014969 30.899818 0.000003
v 163.623184 18.760675 0.000002
v 177.014984 18.945147 0.000001
v 170.408920 22.856611 0.000000
v 177.014984 22.891365 0.000003
v 177.014984 0.583007 0.000011
v 170.311844 0.547453 0.000008
v 171.518723 26.746265 9.357840
v 174.969223 29.758427 14.001913
v 174.969223 26.746267 14.001913
v 167.925858 16.041023 4.522169
v 174.969223 16.203705 14.001913
v 171.494781 19.653139 9.325636
v 174.969223 19.683788 14.001913
v 174.969223 0.010537 14.001905
v 171.443741 -0.020818 9.256926
vt 0.299496 0.899780
vt 0.107925 1.000000
vt 0.107925 0.900000
vt 0.500000 0.544599
vt 0.107925 0.550000
vt 0.301196 0.664476
vt 0.107925 0.665534
vt 0.107925 0.012407
vt 0.303544 0.012185
vt 0.107925 0.012407
vt 0.303544 0.012185
vt 0.500000 0.544599
vt 0.107925 0.550000
vt 0.301196 0.664476
vt 0.107925 0.665534
vt 0.299496 0.899780
vt 0.107925 1.000000
vt 0.107925 0.900000
vt 0.107925 0.012407
vt 0.107925 0.550000
vt 0.500000 0.544599
vt 0.303544 0.012185
vt 0.107925 0.665534
vt 0.301196 0.664476
vt 0.107925 0.900000
vt 0.107925 1.000000
vt 0.299496 0.899780
vt 0.107925 0.012407
vt 0.303544 0.012185
vt 0.500000 0.544599
vt 0.107925 0.550000
vt 0.301196 0.664476
vt 0.107925 0.665534
vt 0.299496 0.899780
vt 0.107925 1.000000
vt 0.107925 0.900000
vt 0.107925 0.012407
vt 0.107925 0.550000
vt 0.500000 0.544599
vt 0.303544 0.012185
vt 0.107925 0.665534
vt 0.301196 0.664476
vt 0.107925 0.900000
vt 0.107925 1.000000
vt 0.299496 0.899780
vt 0.107925 0.012407
vt 0.303544 0.012185
vt 0.500000 0.544599
vt 0.107925 0.550000
vt 0.301196 0.664476
vt 0.107925 0.665534
vt 0.299496 0.899780
vt 0.107925 1.000000
vt 0.107925 0.900000
vt 0.107925 0.012407
vt 0.107925 0.550000
vt 0.500000 0.544599
vt 0.303544 0.012185
vt 0.107925 0.665534
vt 0.301196 0.664476
vt 0.107925 0.900000
vt 0.107925 1.000000
vt 0.299496 0.899780
vt 0.107925 0.012407
vt 0.107925 0.550000
vt 0.500000 0.544599
vt 0.303544 0.012185
vt 0.107925 0.665534
vt 0.301196 0.664476
vt 0.107925 0.900000
vt 0.107925 1.000000
vt 0.299496 0.899780
vt 0.107925 0.012407
vt 0.107925 0.550000
vt 0.500000 0.544599
vt 0.303544 0.012185
vt 0.107925 0.665534
vt 0.301196 0.664476
vt 0.107925 0.900000
vt 0.107925 1.000000
vt 0.299496 0.899780
vt 0.107925 0.012407
vt 0.107925 0.550000
vt 0.500000 0.544599
vt 0.303544 0.012185
vt 0.107925 0.665534
vt 0.301196 0.664476
vt 0.107925 0.900000
vt 0.107925 1.000000
vt 0.299496 0.899780
vt 0.107925 0.012407
vt 0.303544 0.012185
vt 0.500000 0.544599
vt 0.107925 0.550000
vt 0.301196 0.664476
vt 0.107925 0.665534
vt 0.299496 0.899780
vt 0.107925 1.000000
vt 0.107925 0.900000
vt 0.107925 0.012407
vt 0.303544 0.012185
vt 0.500000 0.544599
vt 0.107925 0.550000
vt 0.301196 0.664476
vt 0.107925 0.665534
vt 0.299496 0.899780
vt 0.107925 1.000000
vt 0.107925 0.900000
vt 0.107925 0.012407
vt 0.107925 0.550000
vt 0.500000 0.544599
vt 0.303544 0.012185
vt 0.107925 0.665534
vt 0.301196 0.664476
vt 0.107925 0.900000
vt 0.107925 1.000000
vt 0.299496 0.899780
vt 0.107925 0.012407
vt 0.303544 0.012185
vt 0.500000 0.544599
vt 0.107925 0.550000
vt 0.301196 0.664476
vt 0.107925 0.665534
vt 0.299496 0.899780
vt 0.107925 1.000000
vt 0.107925 0.900000
vt 0.107925 0.012407
vt 0.303544 0.012185
vt 0.500000 0.544599
vt 0.107925 0.550000
vt 0.301196 0.664476
vt 0.107925 0.665534
vt 0.299496 0.899780
vt 0.107925 1.000000
vt 0.107925 0.900000
vt 0.107925 0.012407
vt 0.107925 0.550000
vt 0.500000 0.544599
vt 0.303544 0.012185
vt 0.107925 0.665534
vt 0.301196 0.664476
vt 0.107925 0.900000
vt 0.107925 1.000000
vt 0.299496 0.899780
vt 0.107925 0.012407
vt 0.303544 0.012185
vt 0.500000 0.544599
vt 0.107925 0.550000
vt 0.301196 0.664476
vt 0.107925 0.665534
vt 0.299496 0.899780
vt 0.107925 1.000000
vt 0.107925 0.900000
vt 0.107925 0.012407
vt 0.303544 0.012185
vt 0.500000 0.544599
vt 0.107925 0.550000
vt 0.301196 0.664476
vt 0.107925 0.665534
vt 0.299496 0.899780
vt 0.107925 1.000000
vt 0.107925 0.900000
vt 0.107925 0.012407
vt 0.303544 0.012185
vt 0.500000 0.544599
vt 0.107925 0.550000
vt 0.301196 0.664476
vt 0.107925 0.665534
vt 0.299496 0.899780
vt 0.107925 1.000000
vt 0.107925 0.900000
vt 0.107925 0.012407
vt 0.303544 0.012185
vt 0.500000 0.544599
vt 0.107925 0.550000
vt 0.301196 0.664476
vt 0.107925 0.665534
vt 0.299496 0.899780
vt 0.107925 1.000000
vt 0.107925 0.900000
vt 0.107925 0.012407
vt 0.107925 0.550000
vt 0.500000 0.544599
vt 0.303544 0.012185
vt 0.107925 0.665534
vt 0.301196 0.664476
vt 0.107925 0.900000
vt 0.107925 1.000000
vt 0.299496 0.899780
vt 0.107925 0.012407
vt 0.107925 0.550000
vt 0.500000 0.544599
vt 0.303544 0.012185
vt 0.107925 0.665534
vt 0.301196 0.664476
vt 0.107925 0.900000
vt 0.107925 1.000000
vt 0.299496 0.899780
vt 0.107925 0.012407
vt 0.303544 0.012185
vt 0.500000 0.544599
vt 0.107925 0.550000
vt 0.301196 0.664476
vt 0.107925 0.665534
vt 0.299496 0.899780
vt 0.107925 1.000000
vt 0.107925 0.900000
vt 0.107925 0.012407
vt 0.303544 0.012185
vt 0.500000 0.544599
vt 0.107925 0.550000
vt 0.301196 0.664476
vt 0.107925 0.665534
vt 0.299496 0.899780
vt 0.107925 1.000000
vt 0.107925 0.900000
vt 0.107925 0.012407
vt 0.303544 0.012185
vt 0.500000 0.544599
vt 0.107925 0.550000
vt 0.301196 0.664476
vt 0.107925 0.665534
vt 0.299496 0.899780
vt 0.107925 1.000000
vt 0.107925 0.900000
vt 0.107925 0.012407
vt 0.107925 0.550000
vt 0.500000 0.544599
vt 0.303544 0.012185
vt 0.107925 0.665534
vt 0.301196 0.664476
vt 0.107925 0.900000
vt 0.107925 1.000000
vt 0.299496 0.899780
vt 0.107925 0.012407
vt 0.107925 0.550000
vt 0.500000 0.544599
vt 0.303544 0.012185
vt 0.107925 0.665534
vt 0.301196 0.664476
vt 0.107925 0.900000
vt 0.107925 1.000000
vt 0.299496 0.899780
vt 0.107925 0.012407
vt 0.107925 0.550000
vt 0.500000 0.544599
vt 0.303544 0.012185
vt 0.107925 0.665534
vt 0.301196 0.664476
vt 0.107925 0.900000
vt 0.107925 1.000000
vt 0.299496 0.899780
vt 0.107925 0.012407
vt 0.303544 0.012185
vt 0.500000 0.544599
vt 0.107925 0.550000
vt 0.301196 0.664476
vt 0.107925 0.665534
vt 0.299496 0.899780
vt 0.107925 1.000000
vt 0.107925 0.900000
vn 0.713459 0.000001 0.700697
vn 0.713459 -0.000000 0.700697
vn 0.713459 0.000001 0.700697
vn 0.713459 0.000001 0.700697
vn 0.713459 -0.000002 0.700697
vn 0.713459 -0.000003 0.700697
vn 0.713459 -0.000000 0.700697
vn 0.713459 -0.000000 0.700697
vn 0.713459 -0.000000 0.700697
vn 0.987947 0.000001 0.154796
vn 0.987947 0.000001 0.154796
vn 0.987947 0.000001 0.154796
vn 0.987947 0.000001 0.154796
vn 0.987947 0.000001 0.154796
vn 0.987947 0.000001 0.154796
vn 0.987947 0.000002 0.154796
vn 0.987947 0.000002 0.154796
vn 0.987947 0.000002 0.154796
vn 0.713458 0.000001 0.700698
vn 0.713458 0.000001 0.700698
vn 0.713458 0.000001 0.700698
vn 0.713458 0.000001 0.700698
vn 0.713458 -0.000001 0.700698
vn 0.713458 -0.000001 0.700698
vn 0.713458 -0.000001 0.700698
vn 0.713458 -0.000001 0.700698
vn 0.713458 -0.000001 0.700698
vn 0.713459 0.000000 0.700697
vn 0.713459 0.000000 0.700697
vn 0.713459 0.000000 0.700697
vn 0.713459 0.000000 0.700697
vn 0.713459 0.000000 0.700697
vn 0.713459 0.000000 0.700697
vn 0.713459 0.000000 0.700697
vn 0.713459 0.000000 0.700697
vn 0.713459 0.000000 0.700697
vn -0.000000 0.000000 1.000000
vn -0.000000 0.000000 1.000000
vn -0.000000 0.000000 1.000000
vn -0.000000 0.000000 1.000000
vn 0.000000 -0.000000 1.000000
vn 0.000000 -0.000000 1.000000
vn 0.000000 -0.000000 1.000000
vn 0.000000 -0.000000 1.000000
vn 0.000000 -0.000000 1.000000
vn 0.713459 0.000001 0.700697
vn 0.713459 0.000001 0.700697
vn 0.713459 0.000000 0.700697
vn 0.713459 -0.000001 0.700697
vn 0.713459 -0.000004 0.700697
vn 0.713459 -0.000003 0.700697
vn 0.713459 0.000000 0.700697
vn 0.713459 0.000000 0.700697
vn 0.713459 0.000000 0.700697
vn 0.987946 0.000001 0.154797
vn 0.987946 0.000001 0.154797
vn 0.987946 0.000001 0.154797
vn 0.987946 0.000001 0.154797
vn 0.987946 -0.000003 0.154797
vn 0.987946 -0.000003 0.154797
vn 0.987946 -0.000002 0.154796
vn 0.987946 -0.000002 0.154796
vn 0.987947 -0.000002 0.154796
vn 0.987946 0.000000 0.154797
vn 0.987946 0.000001 0.154797
vn 0.987946 0.000001 0.154797
vn 0.987946 0.000000 0.154797
vn 0.987946 0.000003 0.154797
vn 0.987946 0.000004 0.154797
vn 0.987946 0.000002 0.154797
vn 0.987946 0.000002 0.154797
vn 0.987946 0.000002 0.154797
vn 0.802693 -0.000000 -0.596393
vn 0.802692 0.000000 -0.596393
vn 0.802692 -0.000000 -0.596393
vn 0.802693 -0.000000 -0.596393
vn 0.802692 0.000001 -0.596394
vn 0.802692 0.000001 -0.596394
vn 0.802692 0.000000 -0.596394
vn 0.802692 0.000000 -0.596394
vn 0.802692 0.000000 -0.596394
vn 0.802691 0.000002 -0.596395
vn 0.802691 0.000001 -0.596395
vn 0.802691 0.000001 -0.596395
vn 0.802691 0.000002 -0.596395
vn 0.802692 -0.000002 -0.596394
vn 0.802692 -0.000003 -0.596394
vn 0.802692 0.000000 -0.596394
vn 0.802692 0.000000 -0.596394
vn 0.802692 0.000000 -0.596394
vn 0.000000 0.000000 1.000000
vn 0.000000 0.000000 1.000000
vn 0.000000 0.000000 1.000000
vn 0.000000 0.000000 1.000000
vn 0.000000 -0.000000 1.000000
vn 0.000000 -0.000000 1.000000
vn 0.000000 -0.000000 1.000000
vn 0.000000 -0.000000 1.000000
vn 0.000000 -0.000000 1.000000
vn 0.000000 0.000000 1.000000
vn 0.000000 0.000000 1.000000
vn 0.000000 0.000000 1.000000
vn 0.000000 0.000000 1.000000
vn 0.000000 -0.000000 1.000000
vn 0.000000 -0.000000 1.000000
vn 0.000000 -0.000000 1.000000
vn 0.000000 -0.000000 1.000000
vn 0.000000 -0.000000 1.000000
vn 0.713458 0.000000 0.700698
vn 0.713458 0.000000 0.700698
vn 0.713458 0.000000 0.700698
vn 0.713458 0.000000 0.700698
vn 0.713458 -0.000001 0.700698
vn 0.713458 -0.000001 0.700698
vn 0.713459 -0.000002 0.700697
vn 0.713459 -0.000002 0.700697
vn 0.713459 -0.000002 0.700697
vn 0.000000 0.000000 1.000000
vn 0.000000 0.000000 1.000000
vn 0.000000 0.000000 1.000000
vn 0.000000 0.000000 1.000000
vn 0.000000 -0.000000 1.000000
vn 0.000000 -0.000000 1.000000
vn 0.000000 -0.000000 1.000000
vn 0.000000 -0.000000 1.000000
vn 0.000000 -0.000000 1.000000
vn 0.713459 0.000000 0.700697
vn 0.713459 0.000000 0.700697
vn 0.713459 0.000000 0.700697
vn 0.713459 0.000000 0.700697
vn 0.713460 0.000000 0.700696
vn 0.713460 0.000000 0.700696
vn 0.713460 0.000000 0.700696
vn 0.713460 0.000000 0.700696
vn 0.713460 0.000000 0.700696
vn 0.987946 -0.000001 0.154797
vn 0.987946 0.000001 0.154797
vn 0.987946 0.000000 0.154797
vn 0.987946 -0.000001 0.154797
vn 0.987946 0.000002 0.154797
vn 0.987946 0.000004 0.154797
vn 0.987946 -0.000002 0.154797
vn 0.987946 -0.000002 0.154797
vn 0.987946 -0.000002 0.154797
vn 0.987946 -0.000001 0.154797
vn 0.987946 -0.000001 0.154797
vn 0.987946 -0.000000 0.154797
vn 0.987946 0.000000 0.154797
vn 0.987946 0.000002 0.154797
vn 0.987946 0.000001 0.154797
vn 0.987946 -0.000002 0.154797
vn 0.987946 -0.000002 0.154797
vn 0.987946 -0.000002 0.154797
vn 0.713460 0.000001 0.700696
vn 0.713460 0.000001 0.700696
vn 0.713460 0.000000 0.700696
vn 0.713460 -0.000001 0.700696
vn 0.713460 -0.000004 0.700696
vn 0.713460 -0.000003 0.700696
vn 0.713460 0.000000 0.700696
vn 0.713460 0.000000 0.700696
vn 0.713460 0.000000 0.700696
vn 0.802692 0.000000 -0.596394
vn 0.802692 0.000000 -0.596394
vn 0.802692 0.000001 -0.596394
vn 0.802692 0.000001 -0.596394
vn 0.802693 0.000002 -0.596393
vn 0.802693 0.000002 -0.596393
vn 0.802693 0.000000 -0.596393
vn 0.802693 0.000000 -0.596392
vn 0.802693 0.000000 -0.596392
vn 0.000000 0.000000 1.000000
vn 0.000000 0.000000 1.000000
vn 0.000000 0.000000 1.000000
vn 0.000000 0.000000 1.000000
vn 0.000000 -0.000000 1.000000
vn 0.000000 -0.000000 1.000000
vn 0.000000 -0.000000 1.000000
vn 0.000000 -0.000000 1.000000
vn 0.000000 -0.000000 1.000000
vn 0.802692 0.000000 -0.596393
vn 0.802692 0.000000 -0.596393
vn 0.802692 0.000000 -0.596393
vn 0.802692 0.000000 -0.596393
vn 0.802693 -0.000000 -0.596393
vn 0.802693 -0.000000 -0.596393
vn 0.802693 -0.000000 -0.596393
vn 0.802693 -0.000000 -0.596393
vn 0.802693 -0.000000 -0.596393
vn -0.000000 0.000000 1.000000
vn -0.000000 0.000000 1.000000
vn -0.000000 0.000000 1.000000
vn -0.000000 0.000000 1.000000
vn -0.000000 -0.000000 1.000000
vn -0.000000 -0.000000 1.000000
vn 0.000000 -0.000000 1.000000
vn 0.000000 -0.000000 1.000000
vn 0.000000 -0.000000 1.000000
vn 0.987946 -0.000000 0.154797
vn 0.987946 -0.000000 0.154797
vn 0.987946 -0.000000 0.154797
vn 0.987946 -0.000000 0.154797
vn 0.987946 0.000000 0.154796
vn 0.987946 0.000000 0.154796
vn 0.987947 0.000000 0.154796
vn 0.987946 0.000000 0.154796
vn 0.987947 0.000000 0.154796
vn 0.802692 0.000002 -0.596394
vn 0.802692 0.000002 -0.596394
vn 0.802692 0.000002 -0.596394
vn 0.802692 0.000001 -0.596394
vn 0.802693 -0.000002 -0.596393
vn 0.802693 -0.000002 -0.596393
vn 0.802693 0.000000 -0.596393
vn 0.802693 0.000000 -0.596393
vn 0.802693 0.000000 -0.596393
vn 0.987946 0.000000 0.154797
vn 0.987946 0.000000 0.154797
vn 0.987946 0.000001 0.154797
vn 0.987946 0.000001 0.154797
vn 0.987946 0.000002 0.154798
vn 0.987946 0.000001 0.154798
vn 0.987946 -0.000002 0.154798
vn 0.987946 -0.000002 0.154798
vn 0.987946 -0.000002 0.154798
vn -0.000000 0.000000 1.000000
vn -0.000000 0.000000 1.000000
vn -0.000000 0.000000 1.000000
vn -0.000000 0.000000 1.000000
vn -0.000000 -0.000000 1.000000
vn -0.000000 -0.000000 1.000000
vn 0.000000 -0.000000 1.000000
vn 0.000000 -0.000000 1.000000
vn 0.000000 -0.000000 1.000000
vn 0.987946 -0.000001 0.154796
vn 0.987946 -0.000000 0.154796
vn 0.987946 -0.000000 0.154796
vn 0.987946 -0.000001 0.154796
vn 0.987946 0.000000 0.154796
vn 0.987946 0.000000 0.154796
vn 0.987947 0.000000 0.154796
vn 0.987947 0.000000 0.154796
vn 0.987947 0.000000 0.154796
vn -0.000000 0.000000 1.000000
vn -0.000000 0.000000 1.000000
vn -0.000000 0.000000 1.000000
vn -0.000000 0.000000 1.000000
vn -0.000000 -0.000000 1.000000
vn -0.000000 -0.000000 1.000000
vn -0.000000 -0.000000 1.000000
vn -0.000000 -0.000000 1.000000
vn -0.000000 -0.000000 1.000000
vn 0.802692 -0.000000 -0.596393
vn 0.802692 -0.000000 -0.596393
vn 0.802692 -0.000000 -0.596393
vn 0.802692 -0.000000 -0.596393
vn 0.802692 -0.000001 -0.596393
vn 0.802692 -0.000001 -0.596393
vn 0.802692 -0.000001 -0.596393
vn 0.802692 -0.000001 -0.596393
vn 0.802692 -0.000001 -0.596393
s 1
g pPlane116
usemtl blinn2SG
f 8/8/1 5/5/2 4/4/3 9/9/4
f 4/4/3 5/5/2 7/7/5 6/6/6
f 6/6/6 7/7/5 3/3/7 2/2/8 1/1/9
s 2
f 17/10/10 18/11/11 13/12/12 14/13/13
f 13/12/12 15/14/14 16/15/15 14/13/13
f 15/14/14 10/16/16 11/17/17 12/18/18 16/15/15
s 3
f 26/19/19 23/20/20 22/21/21 27/22/22
f 22/21/21 23/20/20 25/23/23 24/24/24
f 24/24/24 25/23/23 21/25/25 20/26/26 19/27/27
s 4
f 35/28/28 36/29/29 31/30/30 32/31/31
f 31/30/30 33/32/32 34/33/33 32/31/31
f 33/32/32 28/34/34 29/35/35 30/36/36 34/33/33
s 5
f 44/37/37 41/38/38 40/39/39 45/40/40
f 40/39/39 41/38/38 43/41/41 42/42/42
f 42/42/42 43/41/41 39/43/43 38/44/44 37/45/45
s 6
f 53/46/46 54/47/47 49/48/48 50/49/49
f 49/48/48 51/50/50 52/51/51 50/49/49
f 51/50/50 46/52/52 47/53/53 48/54/54 52/51/51
s 7
f 62/55/55 59/56/56 58/57/57 63/58/58
f 58/57/57 59/56/56 61/59/59 60/60/60
f 60/60/60 61/59/59 57/61/61 56/62/62 55/63/63
s 8
f 71/64/64 68/65/65 67/66/66 72/67/67
f 67/66/66 68/65/65 70/68/68 69/69/69
f 69/69/69 70/68/68 66/70/70 65/71/71 64/72/72
s 9
f 80/73/73 77/74/74 76/75/75 81/76/76
f 76/75/75 77/74/74 79/77/77 78/78/78
f 78/78/78 79/77/77 75/79/79 74/80/80 73/81/81
s 10
f 89/82/82 86/83/83 85/84/84 90/85/85
f 85/84/84 86/83/83 88/86/86 87/87/87
f 87/87/87 88/86/86 84/88/88 83/89/89 82/90/90
s 11
f 98/91/91 99/92/92 94/93/93 95/94/94
f 94/93/93 96/95/95 97/96/96 95/94/94
f 96/95/95 91/97/97 92/98/98 93/99/99 97/96/96
s 12
f 107/100/100 108/101/101 103/102/102 104/103/103
f 103/102/102 105/104/104 106/105/105 104/103/103
f 105/104/104 100/106/106 101/107/107 102/108/108 106/105/105
s 13
f 116/109/109 113/110/110 112/111/111 117/112/112
f 112/111/111 113/110/110 115/113/113 114/114/114
f 114/114/114 115/113/113 111/115/115 110/116/116 109/117/117
s 14
f 125/118/118 126/119/119 121/120/120 122/121/121
f 121/120/120 123/122/122 124/123/123 122/121/121
f 123/122/122 118/124/124 119/125/125 120/126/126 124/123/123
s 15
f 134/127/127 135/128/128 130/129/129 131/130/130
f 130/129/129 132/131/131 133/132/132 131/130/130
f 132/131/131 127/133/133 128/134/134 129/135/135 133/132/132
s 16
f 143/136/136 140/137/137 139/138/138 144/139/139
f 139/138/138 140/137/137 142/140/140 141/141/141
f 141/141/141 142/140/140 138/142/142 137/143/143 136/144/144
s 17
f 152/145/145 153/146/146 148/147/147 149/148/148
f 148/147/147 150/149/149 151/150/150 149/148/148
f 150/149/149 145/151/151 146/152/152 147/153/153 151/150/150
s 18
f 161/154/154 162/155/155 157/156/156 158/157/157
f 157/156/156 159/158/158 160/159/159 158/157/157
f 159/158/158 154/160/160 155/161/161 156/162/162 160/159/159
s 19
f 170/163/163 171/164/164 166/165/165 167/166/166
f 166/165/165 168/167/167 169/168/168 167/166/166
f 168/167/167 163/169/169 164/170/170 165/171/171 169/168/168
s 20
f 179/172/172 180/173/173 175/174/174 176/175/175
f 175/174/174 177/176/176 178/177/177 176/175/175
f 177/176/176 172/178/178 173/179/179 174/180/180 178/177/177
s 21
f 188/181/181 185/182/182 184/183/183 189/184/184
f 184/183/183 185/182/182 187/185/185 186/186/186
f 186/186/186 187/185/185 183/187/187 182/188/188 181/189/189
s 22
f 197/190/190 194/191/191 193/192/192 198/193/193
f 193/192/192 194/191/191 196/194/194 195/195/195
f 195/195/195 196/194/194 192/196/196 191/197/197 190/198/198
s 23
f 206/199/199 207/200/200 202/201/201 203/202/202
f 202/201/201 204/203/203 205/204/204 203/202/202
f 204/203/203 199/205/205 200/206/206 201/207/207 205/204/204
s 24
f 215/208/208 216/209/209 211/210/210 212/211/211
f 211/210/210 213/212/212 214/213/213 212/211/211
f 213/212/212 208/214/214 209/215/215 210/216/216 214/213/213
s 25
f 224/217/217 225/218/218 220/219/219 221/220/220
f 220/219/219 222/221/221 223/222/222 221/220/220
f 222/221/221 217/223/223 218/224/224 219/225/225 223/222/222
s 26
f 233/226/226 230/227/227 229/228/228 234/229/229
f 229/228/228 230/227/227 232/230/230 231/231/231
f 231/231/231 232/230/230 228/232/232 227/233/233 226/234/234
s 27
f 242/235/235 239/236/236 238/237/237 243/238/238
f 238/237/237 239/236/236 241/239/239 240/240/240
f 240/240/240 241/239/239 237/241/241 236/242/242 235/243/243
s 28
f 251/244/244 248/245/245 247/246/246 252/247/247
f 247/246/246 248/245/245 250/248/248 249/249/249
f 249/249/249 250/248/248 246/250/250 245/251/251 244/252/252
s 29
f 260/253/253 261/254/254 256/255/255 257/256/256
f 256/255/255 258/257/257 259/258/258 257/256/256
f 258/257/257 253/259/259 254/260/260 255/261/261 259/258/258
